/* XPM */
static char *languageBuddy__[] = {
/* columns rows colors chars-per-pixel */
"32 32 214 2",
"   c #7B716E",
".  c #9C1E1E",
"X  c #A01E1E",
"o  c #B02222",
"O  c #CA2626",
"+  c #D52828",
"@  c #D63D3D",
"#  c #DD3A3A",
"$  c #E42B2B",
"%  c #EA2D2D",
"&  c #F32E2E",
"*  c #E5302D",
"=  c #EC342E",
"-  c #E73A2F",
";  c #F2312D",
":  c #F03C2C",
">  c #E92F39",
",  c #F22E33",
"<  c #F32D3B",
"1  c #E13731",
"2  c #ED3131",
"3  c #EB3B34",
"4  c #E03F3F",
"5  c #EF3E3B",
"6  c #F43434",
"7  c #FE3333",
"8  c #F33833",
"9  c #F53B3B",
"0  c #FF3A3A",
"q  c #B47438",
"w  c #BE713D",
"e  c #B07939",
"r  c #DD4632",
"t  c #DA4B33",
"y  c #DC403F",
"u  c #CD5D38",
"i  c #F2442D",
"p  c #F04B2B",
"a  c #EF502B",
"s  c #F0572E",
"d  c #E34737",
"f  c #E84539",
"g  c #F6463C",
"h  c #F44B3E",
"j  c #E55835",
"k  c #E0523E",
"l  c #F15535",
"z  c #F05F34",
"x  c #F3513C",
"c  c #C56135",
"v  c #D57F36",
"b  c #EC7227",
"n  c #ED752A",
"m  c #F16337",
"M  c #EF7632",
"N  c #F97838",
"B  c #BE346D",
"V  c #BC3570",
"C  c #B3367A",
"Z  c #D7314E",
"A  c #DE3249",
"S  c #CE325A",
"D  c #DA3753",
"F  c #D0345B",
"G  c #F42C41",
"H  c #F42D4D",
"J  c #E33042",
"K  c #F53C44",
"L  c #F52C52",
"P  c #F62B5D",
"I  c #F63456",
"U  c #F63954",
"Y  c #C73363",
"T  c #C6396A",
"R  c #C03970",
"E  c #F72A6D",
"W  c #F83B6C",
"Q  c #F72A75",
"!  c #F82D79",
"~  c #F73075",
"^  c #F83C71",
"/  c #9A5F5D",
"(  c #BE4D4C",
")  c #A65856",
"_  c #A45E5D",
"`  c #B45452",
"'  c #B45856",
"]  c #B55D5C",
"[  c #8C6866",
"{  c #976866",
"}  c #996D6A",
"|  c #83726F",
" . c #C64746",
".. c #D24342",
"X. c #DC4241",
"o. c #D34A4A",
"O. c #DE5640",
"+. c #D4514F",
"@. c #C55A59",
"#. c #E34C4B",
"$. c #F74444",
"%. c #F64C40",
"&. c #F7444B",
"*. c #F64949",
"=. c #F84C4C",
"-. c #F8504F",
";. c #F9584A",
":. c #F64257",
">. c #F7415A",
",. c #F95454",
"<. c #FA5858",
"1. c #CD6B43",
"2. c #D66446",
"3. c #D36948",
"4. c #C27D51",
"5. c #C87F53",
"6. c #F06E4B",
"7. c #6D807D",
"8. c #6CC644",
"9. c #66CC45",
"0. c #68C944",
"q. c #62D045",
"w. c #4FE648",
"e. c #47EF4A",
"r. c #4BEB49",
"t. c #54E048",
"y. c #45F24A",
"u. c #8F9E3E",
"i. c #95973D",
"p. c #A5843A",
"a. c #A28A3C",
"s. c #8DA13E",
"d. c #FA9E1E",
"f. c #FAAF15",
"g. c #FAA518",
"h. c #FBB017",
"j. c #FBB51B",
"k. c #FCB91E",
"l. c #EC842A",
"z. c #EB8E29",
"x. c #FA8E28",
"c. c #EA9425",
"v. c #E99F25",
"b. c #EA9528",
"n. c #FA9C20",
"m. c #FA922D",
"M. c #FA8033",
"N. c #DBB72D",
"B. c #D8B93D",
"V. c #E9A324",
"C. c #E8A923",
"Z. c #FBA324",
"A. c #FBA72B",
"S. c #FCA929",
"D. c #E7B621",
"F. c #FCBA20",
"G. c #E0A23B",
"H. c #FDD90D",
"J. c #FCCB14",
"K. c #FDD213",
"L. c #FDDC10",
"P. c #FDE40B",
"I. c #A58D41",
"U. c #B49A5E",
"Y. c #B2AA66",
"T. c #B0AD68",
"R. c #ADB46A",
"E. c #AABA6D",
"W. c #9DCD76",
"Q. c #9DD379",
"!. c #97DF7E",
"~. c #A5C372",
"^. c #7A3DBF",
"/. c #7D5CB9",
"(. c #763DC4",
"). c #723FC9",
"_. c #6641DA",
"`. c #5E41E2",
"'. c #5442ED",
"]. c #5841E9",
"[. c #AB3784",
"{. c #AA3887",
"}. c #A23C94",
"|. c #953FA5",
" X c #F92B8C",
".X c #F83388",
"XX c #FA279F",
"oX c #FA3295",
"OX c #FA3198",
"+X c #FA27A5",
"@X c #FA26AB",
"#X c #FB2FAB",
"$X c #FB26B7",
"%X c #FB25BD",
"&X c #A35890",
"*X c #96699B",
"=X c #F45987",
"-X c #FC28C6",
";X c #FC24CC",
":X c #FD25D6",
">X c #FD25DA",
",X c #FE23E1",
"<X c #FE23EC",
"1X c #289F9A",
"2X c #359793",
"3X c #389591",
"4X c #24A09B",
"5X c #438F8B",
"6X c #518783",
"7X c #618784",
"8X c #91EB83",
"9X c #8BF689",
"0X c #87FE8C",
"qX c #89FA8A",
/* pixels */
"0 0 0 0 0 0 0 0 0 0 0 0 0 0 0 0 0 0 0 0 0 0 0 0 0 0 0 0 0 0 0 0 ",
"7 0 0 0 0 0 0 0 0 0 0 0 0 0 0 0 0 0 0 0 0 0 0 0 0 0 0 0 0 0 0 % ",
"7 7 7 7 7 7 7 7 7 7 7 7 7 7 7 7 7 7 7 7 7 7 7 7 7 7 7 7 7 7 & o ",
"7 7 7 7 7 7 7 7 7 7 7 7 7 7 7 7 7 7 7 7 7 7 7 7 7 7 7 7 7 & + o ",
"7 7 7 7 & & & & & & & & & & & & & & & & & & & & & & & & & $ + o ",
"7 7 7 7 & > S Y A & & & & & & & & & & & & & & & & & & & & $ + o ",
"7 7 7 7 > (.V C _.Z & & & & & & & & & c q.y.8.t a.w.w.s.= $ + o ",
"7 7 7 7 Y ].6 6 `.{.6 6 6 i 6 6 6 6 t e.8.a.9.r.y.u.i.e.s.$ + o ",
"7 7 7 7 > S A R `.}.6 6 6 f.g.6 6 6 a.y.3 6 d y.u.& & u.t.$ + o ",
"7 7 7 7 , [.}.D _.}.9 9 9 h.d.9 9 9 I.e.5 9 f y.e & - 0.9.$ + o ",
"7 7 7 7 B `.6 6 _.&Xn.n.n.H.J.n.n.n.v y.1.9 w e.r a.e.r.c $ + o ",
"7 7 7 7 [.'.F T `.*XB.Z.Z.H.K.Z.Z.P.x.1.$.9 9 u & q p.r & $ + o ",
"7 7 7 7 J ^.).T |./.G.*.*.j.Z.*.*.J.m.$.$.9 9 6 & & & & & $ + o ",
"7 7 7 7 & & 6 6 9 d.j.*.=.k.Z.=.=.J.m.$.x b.l.8 a c.c.b : $ + o ",
"7 7 7 7 & & 6 6 9 d.H.Z.Z.L.K.S.S.P.m.$.M z.z.l.V.c.c.C.c.$ + o ",
"7 7 7 7 & & 6 6 9 d.H.Z.Z.L.K.A.A.P.m.$.m C.C.c.i ; ; p D.$ + o ",
"7 7 7 7 & & 6 6 9 g %.*.=.F.S.<.,.;.=.$.$.l l.n & & & & D.$ + o ",
"7 7 7 7 & & 6 6 9 9 $.*.=.F.S.,.,.=.*.$.$.9 n n & & & & D.$ + o ",
"7 7 7 7 & 2 ( _ { | } #.=.k.S.=.-.=.=.$.$.9 n n & & & & D.$ + o ",
"7 7 7 7 &   [ 4 9 #.7.7X=.M.N =.=.*.*.$.h l.V.n & & & & D.$ + o ",
"7 7 7 7 &  .  | 5 9 @.1X@.$.$.>.^ W &.:.6.b.b.n & & & & D.$ + o ",
"7 7 7 7 &  .3X` 9 9 +.4X] $.W #XW oX#XOX=XV.v.s & & & j N.* + o ",
"7 7 7 7 & / 2XX.9 9 o.4X] K :XU 9 K -X>X.Xz l 6 & k Q.0X0X4.+ o ",
"7 7 7 7 & / 2XX.9 9 o.4X' ~ >X9 9 9  X<XI 9 9 6 & ~.!.O.3 1 + o ",
"7 7 7 7 & / 2Xy 6 6 ..4X`  X>X6 6 6 ! >X6 6 6 6 & 8XE.& & $ + o ",
"7 7 7 7 & / 2X# & & ..4X` Q <XH & & +X,X, < & & & T.9XR.5.U.+ o ",
"7 7 7 7 & ) 6X# & & @ 5X( < :X%XL P @X;X XE & & & 3 Y.qX0XW.+ o ",
"7 7 7 7 & & & & & & & & & & L $X;XXX< Q -XG & & & 8X9XE.3.$ + o ",
"7 7 7 7 & & & & & & & & & & & & & & & & & & & & & 2.3 & & $ + o ",
"7 7 7 % $ $ $ $ $ $ $ $ $ $ $ $ $ $ $ $ $ $ $ $ $ $ $ $ $ $ + o ",
"7 7 % O O O O O O O O O O O O O O O O O O O O O O O O O O O O o ",
"7 + X . . . . . . . . . . . . . . . . . . . . . . . . . . . . X "
};
